<svg id="图层_1" data-name="图层 1" xmlns="http://www.w3.org/2000/svg" viewBox="0 0 3072 1024"><defs><style>.cls-1{fill:#fff;}</style></defs><title>logo白</title><path class="cls-1" d="M236,614.29V352.18A8,8,0,0,1,247.58,345L488.42,465.45a8,8,0,0,0,7.15,0L736.42,345A8,8,0,0,1,748,352.18V614.29a8,8,0,0,1-11.58,7.16l-16-8a8,8,0,0,1-4.42-7.16V400.18A8,8,0,0,0,704.42,393L495.58,497.45a8,8,0,0,1-7.15,0L279.58,393A8,8,0,0,0,268,400.18V606.29a8,8,0,0,1-4.42,7.16l-16,8A8,8,0,0,1,236,614.29Z"/><path class="cls-1" d="M495.58,517a8,8,0,0,0-7.15,0L476,523.24,250.31,636.08a8,8,0,0,0,0,14.31L488.42,769.45a8,8,0,0,0,7.15,0L733.69,650.39a8,8,0,0,0,0-14.31L508,523.24Z"/><path class="cls-1" d="M488.42,213,282.31,316.08a8,8,0,0,0,0,14.31L488.42,433.45a8,8,0,0,0,7.15,0L701.69,330.39a8,8,0,0,0,0-14.31L495.58,213A8,8,0,0,0,488.42,213Z"/><path class="cls-1" d="M1037.92,648.76v12.48a8,8,0,0,1-8,8h-25a8,8,0,0,1-8-8V288.13a8,8,0,0,1,8-8h20.66a8,8,0,0,1,7.27,4.67l3.49,7.62,127.32,289a8,8,0,0,0,14.65,0l126.83-289,3.49-7.62a8,8,0,0,1,7.27-4.67h20.66a8,8,0,0,1,8,8V300.6l.51,348.15v12.48a8,8,0,0,1-8,8h-25a8,8,0,0,1-8-8V648.76l-.43-212.92c0-8.65-11.85-11.12-15.33-3.2L1190,657l-3.49,7.62a8,8,0,0,1-7.27,4.67h-16.36a8,8,0,0,1-7.27-4.67l-3.49-7.62-98.85-224.3c-3.49-7.92-15.32-5.43-15.32,3.23V648.76Z"/><path class="cls-1" d="M1668.09,582.71H1474.63a8,8,0,0,0-7.32,4.78L1436.7,657l-3.49,7.62a8,8,0,0,1-7.27,4.67h-27.28a8,8,0,0,1-7.35-11.15l7.51-17.52,153.6-348.15,3.49-7.62a8,8,0,0,1,7.27-4.67h16.36a8,8,0,0,1,7.27,4.67l3.49,7.62,153.6,348.15,7.51,17.52a8,8,0,0,1-7.35,11.15h-27.28a8,8,0,0,1-7.27-4.67L1706,657l-30.6-69.46A8,8,0,0,0,1668.09,582.71Zm-17.77-52.18-71.64-162.62a8,8,0,0,0-14.64,0L1492.4,530.53a8,8,0,0,0,7.32,11.22H1643a8,8,0,0,0,7.32-11.22Z"/><path class="cls-1" d="M1908.82,280.12h119.49a8,8,0,0,1,8,8v25a8,8,0,0,1-8,8H1916.82a8,8,0,0,0-8,8V661.24a8,8,0,0,1-8,8h-25a8,8,0,0,1-8-8V329.08a8,8,0,0,0-8-8H1747.35a8,8,0,0,1-8-8v-25a8,8,0,0,1,8-8h161.47Z"/><path class="cls-1" d="M2192.61,494.22l-52.51.65a4,4,0,0,0-3.95,4V665.24a4,4,0,0,1-4,4h-33a4,4,0,0,1-4-4V648.76l.23-153.6h-.23v-41h.29q.11-76.54.23-153.09V284.64a4,4,0,0,1,4-4h16.48l145.41-.51c87.42,0,120.83,54.27,120.32,108.54.48,51-47.57,104.67-129.84,104.42h0a4,4,0,0,0-2.83,6.6l141.19,164.48a4,4,0,0,1-3,6.6h-44.47a4,4,0,0,1-3.08-1.45l-144-173.67A4,4,0,0,0,2192.61,494.22Zm-56.46-44.31a4,4,0,0,0,4,4l100.4-1.23c62.41-1.33,100.86-32.26,100.35-64,.51-42-22.44-67.67-79.36-67.58H2140.15a4,4,0,0,0-4,4V449.9Z"/><path class="cls-1" d="M2441.29,300.6V288.13a8,8,0,0,1,8-8h25a8,8,0,0,1,8,8V661.24a8,8,0,0,1-8,8h-25a8,8,0,0,1-8-8Z"/><path class="cls-1" d="M2672.31,422.46a8,8,0,0,0,13.07,0l94.33-133.63,3.75-5.32a8,8,0,0,1,6.54-3.39h30.69a8,8,0,0,1,6.56,12.58l-13.74,19.67L2707.32,462.82a8,8,0,0,0,0,9.23L2823.75,637l13.74,19.67a8,8,0,0,1-6.56,12.58h-30.69a8,8,0,0,1-6.54-3.39l-3.75-5.32L2685.39,512.4a8,8,0,0,0-13.07,0L2567.75,660.54l-3.75,5.32a8,8,0,0,1-6.54,3.39h-30.69a8,8,0,0,1-6.56-12.58L2534,637l116.39-165a8,8,0,0,0,0-9.23L2544.2,312.38l-13.74-19.67a8,8,0,0,1,6.56-12.58h30.69a8,8,0,0,1,6.54,3.39l3.75,5.32Z"/></svg>